<svg xmlns="http://www.w3.org/2000/svg" viewBox="0 0 1000 1000" preserveAspectRatio="xMidYMid meet"><g transform="translate(100, 900) scale(0.08, -0.08)" fill="#fff" stroke="none">
                      <path d="M7117 9917 c-3 -8 -1 -66 4 -131 15 -206 -9 -354 -83 -500 -46 -91
                      -221 -390 -470 -801 -137 -227 -162 -310 -162 -530 1 -140 4 -167 53 -410 95
                      -474 115 -687 100 -1080 -22 -586 -144 -895 -340 -859 -106 20 -261 150 -415
                      348 -213 272 -280 402 -424 816 -235 676 -385 1048 -525 1300 -77 141 -130
                      214 -209 287 -86 81 -164 125 -305 174 -64 22 -147 58 -184 80 -157 93 -362
                      284 -654 609 -212 235 -435 430 -493 430 -54 0 -35 -61 148 -480 206 -472 274
                      -651 316 -832 34 -143 40 -233 24 -358 -31 -246 -4 -414 102 -625 47 -95 108
                      -186 287 -430 403 -548 518 -730 611 -965 65 -163 77 -236 77 -450 0 -228 -14
                      -307 -76 -437 -64 -133 -147 -187 -253 -163 -144 34 -399 195 -734 463 -177
                      143 -298 250 -511 455 -233 225 -282 267 -387 338 -159 106 -491 245 -822 344
                      -257 78 -351 110 -422 146 -148 73 -263 193 -382 397 -15 26 -32 47 -38 47
                      -53 0 11 -293 105 -480 53 -106 106 -178 224 -305 162 -173 244 -311 315 -525
                      55 -165 71 -203 133 -314 146 -259 307 -428 753 -788 292 -235 366 -297 500
                      -423 242 -228 361 -375 494 -610 48 -84 108 -182 133 -217 145 -197 471 -442
                      758 -570 44 -20 152 -61 240 -93 360 -130 552 -241 819 -476 180 -159 267
                      -255 440 -489 177 -240 281 -329 435 -372 368 -103 877 102 1152 464 155 203
                      210 390 181 618 -6 47 -23 175 -37 285 -58 461 -56 840 6 1170 6 33 28 138 50
                      234 82 366 102 542 102 901 1 383 -20 516 -133 870 -67 212 -76 251 -85 375
                      -17 230 33 521 193 1120 94 351 115 472 115 655 0 252 -49 375 -218 544 -153
                      154 -196 254 -215 505 -14 175 -34 302 -65 399 -29 92 -110 256 -155 312 -32
                      40 -63 52 -73 27z"/>
                    </g></svg>